<svg id="Слой_1" data-name="Слой 1" xmlns="http://www.w3.org/2000/svg" viewBox="0 0 360 360">
  <title>1xx</title>
  <path d="M359.98,99.72528c-.03-3.61987-.07-7.2398-.16-10.85967a157.54006,157.54006,0,0,0-2.09-23.63913,79.85358,79.85358,0,0,0-7.4-22.48927,75.64309,75.64309,0,0,0-33.06-33.04884A79.62887,79.62887,0,0,0,294.8,2.28866a156.37275,156.37275,0,0,0-23.65-2.07994c-3.48-.1-8.67-.15-10.86005-.17-6.6-.05-11.48-.03-12.9-.02-18.01.09-116.77,0-134.78,0q-6.45,0-12.9.02c-3.62.03-7.24.07-10.86005.17a156.37286,156.37286,0,0,0-23.65,2.07994A79.6287,79.6287,0,0,0,42.73,9.68837,75.643,75.643,0,0,0,9.67,42.73721a80.19529,80.19529,0,0,0-7.41,22.48927A158.84992,158.84992,0,0,0,.18,88.86561c-.09,3.61987-.13,7.2398-.16,10.85967Q-.01,106.175,0,112.62479V247.40014q0,6.44976.02,12.89951c.03,3.61987.07,7.2398.16,10.85967a158.84992,158.84992,0,0,0,2.08,23.63913,80.19529,80.19529,0,0,0,7.41,22.48927,75.643,75.643,0,0,0,33.06,33.04884,79.62838,79.62838,0,0,0,22.47,7.39971,156.37286,156.37286,0,0,0,23.65,2.07994c3.62.1,7.24.14,10.86005.17q6.45.03,12.9.02h134.78q6.45,0,12.9-.02c3.62-.03,7.24-.07,10.86005-.17a156.37275,156.37275,0,0,0,23.65-2.07994,79.62855,79.62855,0,0,0,22.47-7.39971,75.64309,75.64309,0,0,0,33.06-33.04884,79.85358,79.85358,0,0,0,7.4-22.48927,157.54006,157.54006,0,0,0,2.09-23.63913c.09-3.61987.13-7.2398.16-10.85967q.03-6.44976.02-12.89951V112.62479Q360,106.175,359.98,99.72528ZM288.42,275.29913a32.8434,32.8434,0,0,1-6.58,18.89937c-5.11,6.51979-11.49,9.03966-16.6,11.0496a51.4169,51.4169,0,0,1-19.79,3.5199q-32.77506.03-65.54.04V268.00941h46.85c-9.79-11.57962-18.24-21.51927-24.98-29.429-9.68-11.34965-12.5-14.58952-15.31-19.90935-4.09-7.73972-8.41-20.30929-6.41-39.17863h-78.3C91,148.71357,82.1,124.57439,75.93,108.135c-7.35-19.60931-15.79-41.50857-8.15-47.68835a8.5884,8.5884,0,0,1,5.5-1.6499H98.66a20.62653,20.62653,0,0,1,8.61005,1.61994c9.95,4.28983,13.51,15.9594,16.09,24.18916,15.26,48.70827,20.3,55.22806,25.42,59.31788,4.02,3.20991,11.09,7.2998,23.33,8.05972,2.62-.01,5.24-.01,7.87-.02q.045,13.76952.08,27.529,39.105.03,78.2.05c-8.83,3.86986-14.62,11.56955-14.68,19.71929a19.45263,19.45263,0,0,0,3.53,11.00962q15.81006,18.95937,31.64,37.91867C281.02006,250.83,289.17,260.98963,288.42,275.29913Z" transform="translate(-0.00004 -0.00621)" style="fill: #878787"/>
</svg>
