<svg xmlns="http://www.w3.org/2000/svg" viewBox="0 0 18 18" fill="black"><path d="M9.08 14.43c.08 0 .18-.03.3-.08a3.92 3.92 0 0 0 .33-.2 15.53 15.53 0 0 0 2.34-1.86 8.28 8.28 0 0 0 1.56-2c.37-.69.55-1.38.55-2.08 0-.48-.08-.92-.23-1.31a3.1 3.1 0 0 0-.64-1.02A2.83 2.83 0 0 0 11.23 5c-.5 0-.93.13-1.29.37-.36.25-.64.58-.86.97a2.74 2.74 0 0 0-.86-.97A2.2 2.2 0 0 0 6.93 5a2.8 2.8 0 0 0-2.06.88 3.06 3.06 0 0 0-.64 1.02c-.15.4-.23.83-.23 1.3 0 .7.18 1.4.55 2.09.37.69.89 1.36 1.56 2a15.64 15.64 0 0 0 2.34 1.86l.34.2a.67.67 0 0 0 .3.08Z"/></svg>
