<svg xmlns="http://www.w3.org/2000/svg" viewBox="0 0 16 16" fill="white"><path d="m12.84 7.76.02-.03.02-.03.02-.03.02-.02.01-.03.02-.03v-.03l.02-.03v-.04l.02-.03V7.2l-.01-.03-.01-.03-.01-.03-.01-.03-.02-.03-.01-.03-.02-.03-.02-.03-.02-.02-.02-.03a.68.68 0 0 0-.04-.04l-2.78-2.68a.71.71 0 0 0-.98 0 .65.65 0 0 0 0 .95l1.6 1.53H9.06a6.2 6.2 0 0 0-6.05 4.5c-.1.35.13.72.5.8a.7.7 0 0 0 .85-.47A4.82 4.82 0 0 1 9.07 8h1.56L9.04 9.53a.65.65 0 0 0 0 .94c.27.26.71.26.98 0L12.8 7.8a.68.68 0 0 0 .04-.04Z"/></svg>
