<svg xmlns="http://www.w3.org/2000/svg" viewBox="0 0 18 18" fill="#00000070"><path d="M4 9c0 .21.075.39.224.538.15.148.328.222.536.222h3.482v3.482c0 .207.074.385.22.534.148.15.327.224.538.224.21 0 .39-.075.54-.224a.73.73 0 0 0 .224-.534V9.76h3.478a.733.733 0 0 0 .534-.222A.73.73 0 0 0 14 9c0-.21-.075-.39-.224-.54a.73.73 0 0 0-.534-.224H9.764V4.76a.731.731 0 0 0-.224-.536A.736.736 0 0 0 9 4c-.21 0-.39.075-.537.224a.736.736 0 0 0-.221.536v3.476H4.76a.731.731 0 0 0-.536.224A.736.736 0 0 0 4 9Z"/></svg>
