<svg xmlns="http://www.w3.org/2000/svg" viewBox="0 0 18 18" fill="black"><path d="m14.84 8.24.02-.04.02-.03.02-.03.02-.03.01-.03.03-.03V8l.02-.03v-.05L15 7.9v-.3l-.01-.03-.01-.03-.01-.03-.01-.04-.03-.03V7.4l-.03-.03-.02-.03-.02-.03-.02-.03a.76.76 0 0 0-.05-.04l-3.06-3.02a.77.77 0 0 0-1.3.54c0 .2.08.4.23.53L12.42 7h-1.74a6.84 6.84 0 0 0-6.65 5.06c-.11.4.14.81.55.9.4.11.8-.12.93-.53a5.32 5.32 0 0 1 5.18-3.93h1.71l-1.74 1.72a.74.74 0 0 0 0 1.06c.3.29.78.29 1.07 0l3.06-3a.76.76 0 0 0 .05-.05Z"/></svg>
