<svg xmlns="http://www.w3.org/2000/svg" width="250" height="246">
<style type="text/css">
.ico {
    fill-rule: evenodd;
    clip-rule: evenodd;
    fill: url(#icon);
}
</style>
<linearGradient id="icon" gradientUnits="userSpaceOnUse" x1="180" x2="180" y1="300" y2="5">
<stop offset="0" style="stop-color: #fa233b"/>
<stop offset="1" style="stop-color: #fb5c74"/>
</linearGradient>
<g class="ico">
<path d="M1.428040746850339,141.54877842298055 c1.3704584586708979,7.900289938220467 1.6468534419322554,8.821606549091657 4.998142613976213,20.073185659356078 l0,0 c1.19771159413255,3.385838544951628 3.0173119006031506,7.831191192405127 4.3647374440022695,11.17096390681319 l0,0 c25.48592074822432,16.710380029676227 178.76997188191874,72.46155144501917 220.33286748984534,15.742997588261476 l0,0 l3.9386285114743464,-6.679545428816137 c2.637268798618785,-5.263021139601679 5.8618769366679535,-12.437774246761078 8.073036802758812,-17.90809162380878 l0,0 c2.499071306988115,-6.990489784985163 2.6142358833470056,-7.4741810056925395 5.401218631232359,-20.050152744084297 l0,0 c0.4491418477997077,-2.5796865104393425 0.8522178650558525,-5.815811106124394 1.2092280517684386,-8.717958430368649 l0,0 C242.12200533694903,182.6855650983793 141.60636309090205,191.36897415584025 0,128.29333568407134 C0.28791144089723986,132.27803002608917 0.9558659837788285,137.58711699623444 1.428040746850339,141.54877842298055 L1.428040746850339,141.54877842298055 zM249.7343838342722,135.1801773503335 L249.7343838342722,135.1801773503335 c0.11516457635889919,-0.8752507803276335 0.21881269508190948,-1.7159521877475945 0.3109443561690278,-2.499071306988115 C249.96471298698998,133.5333239084012 249.86106486826696,134.3625088581853 249.7343838342722,135.1801773503335 z" id="svg_3"/>
<path d="M45.93914950956474,218.69752812580688 c1.9232484251936133,1.5777546961169149 2.003863628644841,1.6353369842963645 5.723679445037275,4.410803274545828 l0,0 c1.8080838488347148,1.301359712855561 1.8080838488347148,1.301359712855561 5.101790732699221,3.5125195789464168 l0,0 l1.278326797583778,0.8061520345122949 c7.6354114125949994,4.7562970036225245 47.125344646061414,22.825619034333755 87.20261721895824,17.850509335629326 l0,0 c3.0288283582390405,-0.5067241359791561 7.013522700256943,-1.416524289214458 10.007801685588314,-2.038413001552511 l0,0 c7.623894954959109,-1.946281340465392 8.522178650558521,-2.3148079848138674 19.566461523376923,-6.564380852457239 l0,0 c6.863808750990376,-3.0173119006031506 7.266884768246522,-3.236124595685059 18.034772657803565,-9.58169275306039 l0,0 c2.637268798618785,-1.6814028148399247 5.9655250553909625,-4.157441206556251 8.499145735286739,-5.977041513026852 c-48.92191203726025,33.05223341500398 -158.25916083239883,-9.16710027816835 -173.4724013694094,-20.476261676612218 C35.27490973873071,209.64559242399744 41.68957664192141,215.10439334340924 45.93914950956474,218.69752812580688 L45.93914950956474,218.69752812580688 z" id="svg_4"/>
<path d="M75.43279751507878,6.495279726899874 c-6.852292293354486,2.9942789853313707 -7.278401225882412,3.236124595685059 -18.034772657803565,9.570176295424499 l0,0 L52.411398700934896,19.451294567276015 c0.17274686453834973,0.03454937290766987 0.6909874581533958,0.28791144089724907 1.9232484251936133,0.8752507803276335 l0,0 c11.101865160997855,5.286054054873459 50.13114008902868,23.14807984813867 86.8916728627892,31.497511634158847 l0,0 c26.096293002926487,5.919459224847402 48.253957494378625,6.391633987918888 59.3212732824688,1.2668103399478885 l0,0 c18.39178284451615,-8.522178650558521 2.3032915271779784,-29.689427785324135 -17.44743331837318,-37.11754296047311 l0,0 c0.7255368310610655,0.7600862039687316 2.7639498326135774,2.7984992055212428 3.12096001932616,4.848428664709644 l0,0 c3.040344815874931,16.80251169076335 -72.81856163173177,-7.762092446589789 -91.62493695113994,-20.821755405688915 C87.28323242240944,1.888696672543901 86.6267943371637,2.153575198169367 75.43279751507878,6.495279726899874 L75.43279751507878,6.495279726899874 z" id="svg_5"/>
<path d="M223.8684199840635,47.37870433430895 c14.395572044862359,25.670184070398562 -2.429972561172767,40.618546081783634 -45.02934935632946,40.00817382708148 l0,0 C124.29712726415949,86.59224258451404 59.28672390956113,58.46905303767092 34.82576789093105,47.88542847028812 l0,0 c-6.668028971180246,-2.8791144089724714 -6.668028971180246,-2.8791144089724714 -8.522178650558521,-3.3973550025875183 l0,0 C22.8141025766979,49.38256796295377 18.414815759787928,56.09666276467763 15.305372198097658,61.24451932792037 l0,0 c-3.6161676976694257,6.644996055908468 -3.8004310198436646,7.128687276615842 -8.60279385400975,19.393714658838576 l0,0 L4.180474121828009,88.79188599296899 c1.3243926281273435,0.3109443561690278 1.3243926281273435,0.3109443561690278 7.43963163278487,2.856081493700695 l0,0 c29.009956784806626,11.988632398961373 106.05505836890997,43.854670677468704 178.20566545776012,42.035070370998085 l0,0 c31.15201790508214,-0.7716026616046248 65.9547528807414,-10.238130838306114 54.541943363574504,-50.89122629299742 l0,0 c-2.8330485784289143,-8.326398870748392 -3.5355524942181966,-9.800505448142298 -8.119102633302374,-19.3591652859309 l0,0 c-4.27260578291515,-8.165168463845932 -8.683409057460977,-14.176759349780452 -12.241994466950949,-19.00215509921832 l0,0 c-8.407014074199619,-10.537558736839246 -14.349506214318799,-15.581767181359016 -19.5894944386487,-20.02711982881252 l0,0 c-2.395423188265099,-1.946281340465392 -5.055724902155661,-3.6046512400335358 -8.003938056943477,-4.9175274105249835 C207.88357678544835,26.798794538973745 218.12170762375442,37.22118869945408 223.8684199840635,47.37870433430895 L223.8684199840635,47.37870433430895 z" id="svg_6"/>
</g></svg>