<?xml version="1.0" encoding="utf-8"?>
<svg xmlns="http://www.w3.org/2000/svg" viewBox="0 0 360 360" fill="#888">
<path d="M360,99.7c0-3.6-0.1-7.2-0.2-10.9c-0.1-7.9-0.8-15.8-2.1-23.6c-1.3-7.8-3.8-15.4-7.4-22.5
	c-7.3-14.2-18.8-25.8-33.1-33c-7.1-3.6-14.7-6.1-22.5-7.4c-7.8-1.3-15.7-2-23.6-2.1c-3.5-0.1-8.7-0.2-10.9-0.2
	c-6.6-0.1-11.5,0-12.9,0c-18,0.1-116.8,0-134.8,0c-4.3,0-8.6,0-12.9,0c-3.6,0-7.2,0.1-10.9,0.2C80.9,0.3,73,1,65.2,2.3
	c-7.8,1.3-15.4,3.8-22.5,7.4c-14.2,7.2-25.8,18.8-33.1,33c-3.6,7.1-6.1,14.7-7.4,22.5C1,73,0.3,80.9,0.2,88.9
	C0.1,92.5,0,96.1,0,99.7c0,4.3,0,8.6,0,12.9v134.8c0,4.3,0,8.6,0,12.9c0,3.6,0.1,7.2,0.2,10.9c0.1,7.9,0.8,15.8,2.1,23.6
	c1.3,7.8,3.8,15.4,7.4,22.5c7.3,14.2,18.8,25.8,33.1,33c7.1,3.6,14.7,6.1,22.5,7.4c7.8,1.3,15.7,2,23.7,2.1
	c3.6,0.1,7.2,0.1,10.9,0.2c4.3,0,8.6,0,12.9,0h134.8c4.3,0,8.6,0,12.9,0c3.6,0,7.2-0.1,10.9-0.2c7.9-0.1,15.8-0.8,23.6-2.1
	c7.8-1.3,15.4-3.8,22.5-7.4c14.2-7.2,25.8-18.8,33.1-33c3.6-7.1,6.1-14.7,7.4-22.5c1.3-7.8,2-15.7,2.1-23.6
	c0.1-3.6,0.1-7.2,0.2-10.9c0-4.3,0-8.6,0-12.9V112.6C360,108.3,360,104,360,99.7z M288.4,275.3c-0.2,6.8-2.5,13.4-6.6,18.9
	c-5.1,6.5-11.5,9-16.6,11c-6.3,2.5-13,3.7-19.8,3.5c-21.9,0-43.7,0-65.5,0V268h46.9c-9.8-11.6-18.2-21.5-25-29.4
	c-9.7-11.3-12.5-14.6-15.3-19.9c-4.1-7.7-8.4-20.3-6.4-39.2h-78.3c-10.8-30.8-19.7-54.9-25.8-71.4c-7.3-19.6-15.8-41.5-8.2-47.7
	c1.6-1.2,3.5-1.7,5.5-1.6h25.4c3-0.1,5.9,0.5,8.6,1.6c9.9,4.3,13.5,16,16.1,24.2c15.3,48.7,20.3,55.2,25.4,59.3
	c4,3.2,11.1,7.3,23.3,8.1c2.6,0,5.2,0,7.9,0c0,9.2,0.1,18.4,0.1,27.5c26.1,0,52.1,0,78.2,0.1c-8.8,3.9-14.6,11.6-14.7,19.7
	c0,3.9,1.3,7.8,3.5,11c10.5,12.6,21.1,25.3,31.6,37.9C281,250.8,289.2,261,288.4,275.3z"/>
</svg>